<svg xmlns="http://www.w3.org/2000/svg" version="1.1" xmlns:xlink="http://www.w3.org/1999/xlink" xmlns:svgjs="http://svgjs.dev/svgjs" width="1000" height="1000" viewBox="0 0 1000 1000"><rect width="1000" height="1000" fill="#cf5260"></rect><g transform="matrix(0.7,0,0,0.7,149.60320208289704,217.77912678361287)"><svg viewBox="0 0 306 247" data-background-color="#cf5260" preserveAspectRatio="xMidYMid meet" height="807" width="1000" xmlns="http://www.w3.org/2000/svg" xmlns:xlink="http://www.w3.org/1999/xlink"><g id="tight-bounds" transform="matrix(1,0,0,1,0.17387061543306004,-0.09997365579206985)"><svg viewBox="0 0 305.65234228193646 247.2" height="247.2" width="305.65234228193646"><g><svg viewBox="0 0 305.65234228193646 247.2" height="247.2" width="305.65234228193646"><g><svg viewBox="0 0 305.65234228193646 247.2" height="247.2" width="305.65234228193646"><g><svg viewBox="0 0 305.65234228193646 247.2" height="247.2" width="305.65234228193646"><g><svg viewBox="0 0 305.65234228193646 247.2" height="247.2" width="305.65234228193646"><path d="M304.937 53.02C303.5 27.36 299.405 20.227 299.405 20.227 286.831-6.202 271.14-0.506 257.044 3.292 232.156 3.446 207.369 9.091 182.538 12.119 130.421 12.581 77.858 4.986 25.998 23.717 21.127 29.464-5.054 24.846 0.866 56.304 2.418 69.39 8.08 83.913 7.907 95.922 8.683 98.026 9.761 93.202 10.221 96.23 11.83 104.39 14.46 100.541 16.615 105.365 13.612 118.246 15.768 128.971 17.822 140.21 14.201 143.135 9.56 141.749 7.476 151.449 7.261 158.479 6.097 157.145 4.818 156.837 3.884 156.632 2.002 157.402 2.318 159.608 3.395 167.152-1.231 171.514 1.671 178.904-0.326 186.91 3.051 193.838 2.591 202.511 2.533 204.255 2.849 205.744 3.352 206.154 5.58 208.361 2.332 212.672 2.677 217.342 25.524 249.262 50.311 227.195 73.719 241.872 79.797 231.608 75.228 245.516 77.656 243.36 79.553 240.846 80.933 251.263 83.074 245.362 83.404 243.668 82.901 239.665 84.079 240.435 84.697 240.846 85.243 240.743 85.33 238.382 85.459 234.841 84.324 237.048 84.022 235.201 87.284 225.861 86.479 248.081 89.54 247.158 89.396 244.438 88.505 240.538 90.33 241.051 92.141 237.151 92.198 233.918 93.808 242.693 93.865 244.592 94.152 245.926 94.612 246.85 99.642 237.305 104.642 250.237 109.916 245.926 113.149 241.205 116.253 248.492 119.529 246.696 120.678 245.259 121.842 242.693 122.949 247.004 136.499 247.928 150.94 244.079 163.786 247.158 198.115 241.41 234.8 249.518 270.996 241.923 279.532 238.998 288.398 234.841 296.717 231.506 296.717 231.506 303.457 222.371 303.457 181.316S304.894 145.393 305.109 112.703C305.325 80.013 306.331 78.679 304.894 53.02Z" opacity="1" fill="#f0f0f0" data-fill-palette-color="tertiary"></path><g transform="matrix(1,0,0,1,55.76832,26.230666666666668)"><svg width="194.11570228193645" viewBox="5.420000076293945 -38.15999984741211 38.040000915527344 38.15999984741211" height="194.73866666666666" data-palette-color="#cf5260"><path d="M5.42 0L5.42-38.16 25.81-38.16Q29.54-38.16 32.31-37.37 35.08-36.57 36.91-35.18 38.75-33.79 39.64-31.87 40.53-29.96 40.53-27.73L40.53-27.73Q40.53-24.1 38.23-21.36L38.23-21.36Q40.87-19.8 42.16-17.31 43.46-14.82 43.46-11.65L43.46-11.65Q43.46-8.98 42.57-6.84 41.67-4.69 39.86-3.16 38.04-1.64 35.27-0.82 32.5 0 28.74 0L28.74 0 5.42 0ZM13.16-23.51L28.78-23.51Q29.79-23.51 30.74-23.44L30.74-23.44Q32.37-25 32.37-27L32.37-27Q32.37-29.08 30.75-30.21 29.13-31.35 26-31.35L26-31.35 13.16-31.35 13.16-23.51ZM13.16-6.74L28.93-6.74Q32.06-6.74 33.68-8.08 35.3-9.42 35.3-11.87L35.3-11.87Q35.3-14.31 33.68-15.67 32.06-17.04 28.93-17.04L28.93-17.04 13.16-17.04 13.16-6.74Z" opacity="1" transform="matrix(1,0,0,1,0,0)" fill="#cf5260" class="undefined-text-0" data-fill-palette-color="quaternary" id="text-0"></path></svg></g></svg></g></svg></g></svg></g><g></g></svg></g><defs></defs></svg><rect width="305.65234228193646" height="247.2" fill="none" stroke="none" visibility="hidden"></rect></g></svg></g></svg>